<svg width="159" height="159" viewBox="0 0 159 159" fill="none" xmlns="http://www.w3.org/2000/svg">
<g id="Frame">
<path id="Vector" d="M104.922 72.625C104.922 78.03 103.319 83.3136 100.316 87.8077C97.3134 92.3018 93.0454 95.8045 88.0518 97.8729C83.0582 99.9413 77.5635 100.482 72.2623 99.428C66.9612 98.3736 62.0918 95.7708 58.2699 91.9489C54.448 88.127 51.8452 83.2576 50.7908 77.9565C49.7363 72.6553 50.2775 67.1605 52.3459 62.167C54.4143 57.1734 57.917 52.9053 62.4111 49.9025C66.9052 46.8996 72.1888 45.2969 77.5938 45.2969C84.8391 45.3051 91.7854 48.1869 96.9086 53.3102C102.032 58.4334 104.914 65.3797 104.922 72.625ZM142.188 77.5938C142.188 90.3692 138.399 102.858 131.302 113.48C124.204 124.103 114.116 132.382 102.313 137.271C90.5098 142.16 77.5221 143.439 64.9922 140.946C52.4622 138.454 40.9527 132.302 31.9191 123.268C22.8855 114.235 16.7335 102.725 14.2412 90.1954C11.7488 77.6654 13.028 64.6778 17.9169 52.8748C22.8059 41.0718 31.085 30.9837 41.7074 23.886C52.3298 16.7884 64.8183 13 77.5938 13C94.7196 13.0181 111.139 19.8293 123.248 31.939C135.358 44.0488 142.169 60.468 142.188 77.5938ZM132.25 77.5938C132.242 70.2371 130.751 62.9576 127.865 56.1906C124.979 49.4236 120.758 43.3081 115.454 38.2098C110.151 33.1115 103.874 29.1351 96.9981 26.5185C90.1225 23.9019 82.7898 22.6987 75.4386 22.981C46.1851 24.1114 22.8568 48.4769 22.9375 77.749C22.9656 91.0747 27.8803 103.927 36.7507 113.872C40.3631 108.632 44.9518 104.138 50.2657 100.636C50.7187 100.337 51.2573 100.195 51.7991 100.23C52.3408 100.266 52.8559 100.479 53.2655 100.835C60.0179 106.676 68.6473 109.89 77.5751 109.89C86.503 109.89 95.1324 106.676 101.885 100.835C102.294 100.479 102.809 100.266 103.351 100.23C103.893 100.195 104.432 100.337 104.885 100.636C110.205 104.137 114.8 108.631 118.418 113.872C127.332 103.891 132.257 90.9758 132.25 77.5938Z" fill="white"/>
</g>
</svg>
